<svg width="256" height="256" xmlns="http://www.w3.org/2000/svg">
        <defs>
                <linearGradient id="TopGradient" x1="0" x2="0" y1="0" y2="1">
                        <stop offset="0%" stop-color="rgb(106, 212, 122)" />
                        <stop offset="100%" stop-color="rgb(70, 171, 110)" />
                </linearGradient >
                <linearGradient id="BottomGradient" x1="0" x2="0" y1="0" y2="1">
                        <stop offset="0%" stop-color="rgb(70, 171, 110)" />
                        <stop offset="100%" stop-color="rgb(43, 131, 93)" />
                </linearGradient>
        </defs>
    <rect x="16" y="224" width="224" height="16" />
    <path fill="url(#TopGradient)" d="M 28,144
            c 0 -64, 104 -64, 104 0
            l -8 0
            c 0 -64, 104 -64, 104 0
            l -28 0
            c 0 -40, -67 -40, -67 0
            l -10 0
            c 0 -40, -67 -40, -67 0
            "
    />
    <path fill="url(#BottomGradient)" d="M 28,144
            c 0 64, 104 64, 104 0
            l -8 0
            c 0 64, 104 64, 104 0
            l -28 0
            c 0 40, -67 40, -67 0
            l -10 0
            c 0 40, -67 40, -67 0
            "
    />
    <line stroke="#110000" stroke-width="10" x1="96" y1="16" x2="160" y2="80"/>
    <line stroke="#110000" stroke-width="10" x1="160" y1="16" x2="96" y2="80"/>
</svg>